# xmcd
# Copyright (C) 1995-1998 Ti Kan
#
# Track frame offsets:
#       165
#       16764
#       42654
#
# Disc length: 1536 seconds
#
# Revision: 0
# Processed by: cddbd v1.5.2PL0 Copyright (c) Steve Scherf et al.
# Submitted via: CD-Transfer v1.0
#
DISCID=1c05fe03
DTITLE=The Pure - 
DYEAR=08
DGENRE=
TTITLE0=Brothers And Sisters
TTITLE1=No Advice
TTITLE2=Data Track
EXTD=
EXTT0=
EXTT1=
EXTT2=
PLAYORDER=
